# xmcd
#
# Track frame offsets: 
#        150
#        17499
#        36462
#        53529
#        69341
#        81804
#        98768
#        117069
#        143599
#        155958
#        169031
#        186043
#        208242
#        224281
#        238625
#        251752
#        262788
#        278982
#        292519
#        308307
#
# Disc length: 4443 seconds
#
# Revision: 0
# Processed by: cddbd v1.5.2PL0 Copyright (c) Steve Scherf et al.
# Submitted via: ExactAudioCopy v1.0b1
#
DISCID=0c115914
DTITLE=Various Artist - Lady Got Soul
DYEAR=2012
DGENRE=Soul
TTITLE0=Amy Winehouse - Valerie (Live, BBC Radio 1 Live Lounge)
TTITLE1=Alicia Keys - No One
TTITLE2=Duffy - Warwick Avenue
TTITLE3=Adele - Make You Feel My Love
TTITLE4=Florence And The Machine - You've Got The Love
TTITLE5=Gin Wigmore - Too Late For Lovers
TTITLE6=Lana Del Rey - Video Games
TTITLE7=Sade - Soldier Of Love
TTITLE8=Aretha Franklin - (You Make Me Feel Like) A Natural Woman
TTITLE9=Nina Simone - Feeling Good
TTITLE10=Erykah Badu - On And On
TTITLE11=India.Arie - Brown Skin
TTITLE12=Estelle - No Substitute Love
TTITLE13=Ladi6 - Like Water
TTITLE14=Ruth Brown - I Don't Know
TTITLE15=Dusty Springfield - Son Of A Preacher Man
TTITLE16=Rumer - Slow
TTITLE17=Etta James - At Last
TTITLE18=Melody Gardot - Baby I'm A Fool
TTITLE19=The Mt Raskil Preservation Society Featuring Hollie Smith - B
TTITLE19=athe In The River
EXTD=
EXTT0=
EXTT1=
EXTT2=
EXTT3=
EXTT4=
EXTT5=
EXTT6=
EXTT7=
EXTT8=
EXTT9=
EXTT10=
EXTT11=
EXTT12=
EXTT13=
EXTT14=
EXTT15=
EXTT16=
EXTT17=
EXTT18=
EXTT19=
PLAYORDER=
